<svg height="510pt" viewBox="0 0 510.76857 510" width="510pt" xmlns="http://www.w3.org/2000/svg"><path d="m443.34375 511.152344-88.71875-88.722656-57.023438 85.570312-36.433593-246.464844 246.449219 36.449219-85.550782 57.023437 88.703125 88.71875zm0 0" fill="#77959e"/><path d="m188.847656 436.160156c-82.933594-30.984375-133.910156-114.679687-123.382812-202.585937s79.820312-157.199219 167.726562-167.726563 171.601563 40.449219 202.585938 123.382813c1.585937 4.164062 1.34375 8.804687-.660156 12.78125-2.007813 3.980469-5.59375 6.929687-9.882813 8.132812l-.640625.175781c-7.703125 2.152344-15.777344-1.917968-18.625-9.394531-25.5625-69.460937-95.425781-112.324219-168.929688-103.636719-73.503906 8.683594-131.457031 66.648438-140.125 140.15625-8.667968 73.503907 34.210938 143.363282 103.679688 168.90625 7.472656 2.847657 11.542969 10.921876 9.390625 18.625l-.175781.65625c-1.199219 4.300782-4.15625 7.898438-8.148438 9.902344-3.992187 2.003906-8.644531 2.230469-12.8125.625zm0 0" fill="#24b2d3"/><g fill="#48c8ef"><path d="m200.464844 506.03125c-120.769532-26.136719-205.261719-135.320312-200.257813-258.785156 5.636719-133.824219 112.847657-241.027344 246.671875-246.65625 123.457032-4.980469 232.625 79.5 258.769532 200.257812.996093 4.273438.171874 8.769532-2.277344 12.410156-2.449219 3.640626-6.300782 6.101563-10.632813 6.789063l-.671875.113281c-8.3125 1.144532-16.082031-4.367187-17.746094-12.59375-24.167968-108.355468-124.109374-182.625-234.832031-174.511718-110.722656 8.113281-198.765625 96.160156-206.878906 206.882812-8.117187 110.722656 66.152344 210.660156 174.511719 234.828125 8.226562 1.65625 13.746094 9.433594 12.589844 17.746094l-.109376.671875c-.703124 4.308594-3.160156 8.136718-6.785156 10.570312s-8.097656 3.257813-12.351562 2.277344zm0 0"/><path d="m256.046875 192.429688h32v32h-32zm0 0"/><path d="m320.046875 192.429688h32v32h-32zm0 0"/><path d="m192.046875 192.429688h32v32h-32zm0 0"/><path d="m192.046875 256.429688h32v32h-32zm0 0"/><path d="m192.046875 320.429688h32v32h-32zm0 0"/></g></svg>