<svg id="Capa_1" enable-background="new 0 0 512 512" height="512" viewBox="0 0 512 512" width="512" xmlns="http://www.w3.org/2000/svg"><g><g><g><path d="m381.26 224.18v-60.61h-.401c-18.079 0-34.443-10.903-41.197-27.673-.462-1.146-.937-2.286-1.425-3.419-7.226-16.777-3.559-36.254 9.358-49.17l-42.857-42.858-.291.291c-12.842 12.842-32.187 16.571-48.904 9.472-1.134-.481-2.274-.95-3.421-1.405-16.902-6.708-27.943-23.12-27.943-41.305v-.003h-60.61v.401c0 18.079-10.903 34.443-27.673 41.197-1.146.462-2.286.937-3.419 1.425-16.777 7.226-36.254 3.559-49.17-9.358l-42.857 42.857.291.291c12.842 12.842 16.571 32.187 9.472 48.904-.481 1.134-.95 2.274-1.405 3.421-6.708 16.902-23.12 27.943-41.305 27.943h-.003v60.61h.401c18.079 0 34.443 10.903 41.197 27.673.462 1.146.937 2.286 1.425 3.419 7.226 16.777 3.559 36.254-9.358 49.17l42.857 42.858.291-.291c12.842-12.842 32.187-16.571 48.904-9.472 1.134.481 2.274.95 3.421 1.405 16.902 6.708 27.943 23.12 27.943 41.305v.002h60.61v-.401c0-18.079 10.903-34.443 27.673-41.197 1.146-.462 2.286-.937 3.419-1.425 16.777-7.226 36.254-3.559 49.17 9.358l42.858-42.857-.291-.291c-12.842-12.842-16.571-32.187-9.472-48.904.481-1.134.95-2.274 1.405-3.421 6.708-16.902 23.12-27.943 41.305-27.943h.002z" fill="#62d8f9"/></g><g><path d="m380.86 163.57c-18.079 0-34.443-10.903-41.197-27.673-.462-1.146-.937-2.286-1.425-3.419-7.226-16.777-3.559-36.254 9.358-49.17l-42.858-42.858-.291.291c-5.136 5.136-11.315 8.81-17.947 10.921 16.521 26.639 26.069 58.054 26.069 91.705 0 96.237-78.016 174.253-174.253 174.253-32.352 0-62.637-8.827-88.599-24.188-2.122 4.377-4.982 8.45-8.553 12.021l42.857 42.858.291-.291c12.842-12.842 32.187-16.571 48.904-9.472 1.134.482 2.274.95 3.421 1.405 16.902 6.708 27.942 23.12 27.942 41.305v.002h60.61v-.401c0-18.079 10.903-34.443 27.673-41.197 1.146-.462 2.286-.937 3.419-1.425 16.777-7.226 36.254-3.559 49.17 9.358l42.858-42.857-.291-.291c-12.842-12.842-16.571-32.187-9.472-48.904.482-1.134.95-2.274 1.405-3.421 6.708-16.902 23.12-27.942 41.305-27.942h.002v-60.61z" fill="#00bef7"/></g><g><circle cx="194.38" cy="194.38" fill="#eff3f5" r="125.26"/></g></g><g><circle cx="388.331" cy="388.331" fill="#7fd061" r="116.169"/></g><g><path d="m451.188 290.624c11.681 18.119 18.461 39.696 18.461 62.857 0 64.158-52.011 116.169-116.169 116.169-23.161 0-44.737-6.781-62.857-18.461 20.676 32.073 56.71 53.312 97.707 53.312 64.158 0 116.169-52.011 116.169-116.169.001-40.998-21.238-77.032-53.311-97.708z" fill="#51be26"/></g><g><circle cx="388.331" cy="388.331" fill="#eff3f5" r="86.874"/></g><g><g><g><path d="m375.721 435.17c-3.93 0-7.718-1.529-10.552-4.279l-34.346-33.335 21.107-21.746 22.75 22.081 45.976-54.006 23.056 19.667-56.463 66.3c-2.717 3.186-6.632 5.106-10.815 5.302-.237.01-.475.016-.713.016z" fill="#7fd061"/></g></g></g><g><path d="m97.34 114.907c-3.352-2.432-8.043-1.688-10.475 1.666-16.515 22.761-25.245 49.666-25.245 77.807 0 73.204 59.556 132.76 132.76 132.76s132.761-59.556 132.761-132.76-59.557-132.76-132.761-132.76c-29.699 0-57.8 9.626-81.263 27.839-3.272 2.54-3.866 7.251-1.326 10.523 2.542 3.273 7.254 3.865 10.523 1.326 20.808-16.151 45.728-24.688 72.065-24.688 64.934 0 117.761 52.827 117.761 117.76s-52.827 117.76-117.76 117.76-117.76-52.827-117.76-117.76c0-24.956 7.741-48.815 22.386-68.998 2.432-3.353 1.686-8.043-1.666-10.475z"/><path d="m194.38 108.945c4.143 0 7.5-3.358 7.5-7.5v-6.061c0-4.142-3.357-7.5-7.5-7.5s-7.5 3.358-7.5 7.5v6.061c0 4.142 3.357 7.5 7.5 7.5z"/><path d="m186.88 184.869c-2.811 2.22-4.622 5.651-4.622 9.511 0 6.102 4.513 11.136 10.38 11.983l23.532 40.758c2.205 3.818 7.388 4.904 10.946 2.288 3.037-2.234 3.928-6.525 2.045-9.788l-23.527-40.75c.555-1.39.869-2.902.869-4.49 0-3.86-1.811-7.292-4.622-9.512v-57.159c0-4.142-3.357-7.5-7.5-7.5s-7.5 3.358-7.5 7.5v57.159z"/><path d="m141.418 117.646c1.39 2.406 3.91 3.751 6.502 3.751 1.272 0 2.563-.325 3.744-1.007 3.587-2.071 4.815-6.658 2.744-10.245l-3.031-5.249c-2.072-3.588-6.657-4.815-10.246-2.744-3.587 2.071-4.815 6.658-2.744 10.245z"/><path d="m117.646 141.417-5.249-3.03c-3.59-2.072-8.176-.842-10.245 2.745-2.071 3.587-.842 8.174 2.745 10.245l5.249 3.03c1.182.682 2.471 1.006 3.743 1.006 2.592 0 5.113-1.346 6.502-3.751 2.072-3.587.842-8.174-2.745-10.245z"/><path d="m87.884 194.38c0 4.142 3.357 7.5 7.5 7.5h6.062c4.143 0 7.5-3.358 7.5-7.5s-3.357-7.5-7.5-7.5h-6.062c-4.143 0-7.5 3.358-7.5 7.5z"/><path d="m110.146 234.353-5.249 3.03c-3.587 2.071-4.816 6.658-2.745 10.245 1.389 2.406 3.91 3.751 6.502 3.751 1.272 0 2.562-.324 3.743-1.006l5.249-3.03c3.587-2.071 4.816-6.658 2.745-10.245s-6.657-4.817-10.245-2.745z"/><path d="m141.131 286.608c1.182.683 2.472 1.007 3.744 1.007 2.592 0 5.112-1.345 6.502-3.751l3.031-5.249c2.071-3.587.843-8.174-2.744-10.245-3.59-2.073-8.175-.843-10.246 2.744l-3.031 5.249c-2.072 3.587-.843 8.174 2.744 10.245z"/><path d="m186.88 287.315v6.061c0 4.142 3.357 7.5 7.5 7.5s7.5-3.358 7.5-7.5v-6.061c0-4.142-3.357-7.5-7.5-7.5s-7.5 3.358-7.5 7.5z"/><path d="m234.353 278.614 3.03 5.249c1.389 2.406 3.91 3.751 6.502 3.751 1.272 0 2.562-.324 3.743-1.006 3.587-2.071 4.816-6.658 2.745-10.245l-3.03-5.249c-2.071-3.587-6.657-4.816-10.245-2.745-3.587 2.071-4.817 6.658-2.745 10.245z"/><path d="m271.114 247.343 5.249 3.03c1.182.682 2.471 1.006 3.743 1.006 2.592 0 5.113-1.346 6.502-3.751 2.071-3.587.842-8.174-2.745-10.245l-5.249-3.03c-3.59-2.072-8.175-.842-10.245 2.745-2.071 3.587-.842 8.174 2.745 10.245z"/><path d="m279.815 194.38c0 4.142 3.357 7.5 7.5 7.5h6.061c4.143 0 7.5-3.358 7.5-7.5s-3.357-7.5-7.5-7.5h-6.061c-4.142 0-7.5 3.358-7.5 7.5z"/><path d="m276.363 138.387-5.249 3.03c-3.587 2.071-4.816 6.658-2.745 10.245 1.389 2.406 3.91 3.751 6.502 3.751 1.272 0 2.562-.324 3.743-1.006l5.249-3.03c3.587-2.071 4.816-6.658 2.745-10.245-2.07-3.587-6.657-4.817-10.245-2.745z"/><path d="m237.098 120.391c1.182.682 2.471 1.006 3.743 1.006 2.592 0 5.113-1.346 6.502-3.751l3.03-5.249c2.071-3.587.842-8.174-2.745-10.245-3.589-2.072-8.175-.842-10.245 2.745l-3.03 5.249c-2.072 3.587-.842 8.174 2.745 10.245z"/><path d="m487.341 314.218c-2.485-3.314-7.184-3.987-10.5-1.502-3.313 2.484-3.986 7.186-1.502 10.5 14.171 18.902 21.661 41.419 21.661 65.116 0 59.919-48.749 108.668-108.669 108.668s-108.668-48.749-108.668-108.668c0-59.92 48.748-108.669 108.668-108.669 23.042 0 45.053 7.118 63.652 20.583 3.355 2.429 8.044 1.678 10.474-1.677 2.429-3.355 1.678-8.044-1.677-10.473-21.176-15.33-46.228-23.433-72.449-23.433-16.18 0-31.641 3.128-45.818 8.804-.066-5.122.922-10.249 2.939-14.991.508-1.196 1.005-2.403 1.469-3.587 5.598-14.098 19.076-23.208 34.339-23.208 4.143 0 7.5-3.358 7.5-7.5v-60.61c0-4.142-3.357-7.5-7.5-7.5h-.399c-15.177 0-28.618-9.018-34.236-22.956-.487-1.217-.984-2.423-1.496-3.602-6.062-14.068-3.011-30.121 7.773-40.897 1.407-1.406 2.198-3.314 2.198-5.304s-.79-3.898-2.196-5.305l-9.973-9.973c-2.929-2.929-7.678-2.929-10.606 0-2.93 2.929-2.93 7.677-.001 10.606l5.046 5.046c-11.068 14.772-13.517 34.356-6.009 51.779.461 1.063.903 2.137 1.344 3.238 7.033 17.448 22.71 29.417 41.056 31.891v46.615c-18.282 2.606-33.835 14.649-40.793 32.176-.424 1.083-.866 2.156-1.318 3.219-3.719 8.742-4.945 18.416-3.605 27.783-19.763 11.082-36.189 27.429-47.363 47.133-9.243-1.181-18.776.127-27.383 3.838-1.065.461-2.141.904-3.241 1.345-17.447 7.033-29.417 22.71-31.892 41.056h-46.616c-2.605-18.282-14.648-33.834-32.175-40.793-1.083-.424-2.158-.868-3.224-1.32-17.438-7.405-37.064-4.813-51.794 6.395l-32.967-32.967c11.068-14.772 13.517-34.356 6.012-51.775-.462-1.065-.905-2.141-1.347-3.243-7.033-17.448-22.71-29.417-41.055-31.891v-46.615c18.282-2.606 33.835-14.649 40.793-32.176.425-1.084.869-2.159 1.32-3.223 7.404-17.437 4.815-37.065-6.395-51.794l32.967-32.967c14.773 11.068 34.357 13.517 51.78 6.01 1.063-.461 2.136-.903 3.238-1.344 17.448-7.034 29.417-22.711 31.892-41.056h46.614c2.605 18.282 14.648 33.835 32.178 40.794 1.082.423 2.156.867 3.221 1.319 17.437 7.404 37.065 4.815 51.794-6.394l3.091 3.091c2.93 2.929 7.678 2.929 10.607 0s2.929-7.678 0-10.606l-8.057-8.057c-2.931-2.93-7.679-2.929-10.607 0l-.29.29c-10.721 10.721-26.688 13.809-40.674 7.87-1.196-.508-2.403-1.005-3.585-1.468-14.098-5.597-23.207-19.076-23.207-34.339 0-4.142-3.357-7.5-7.5-7.5h-60.61c-4.143 0-7.5 3.358-7.5 7.5v.4c0 15.176-9.018 28.618-22.954 34.236-1.218.487-2.425.984-3.604 1.496-14.068 6.06-30.121 3.011-40.897-7.773-1.406-1.407-3.314-2.198-5.305-2.199 0 0 0 0-.001 0-1.989 0-3.896.79-5.304 2.197l-42.859 42.86c-2.929 2.929-2.929 7.678 0 10.606l.29.29c10.721 10.721 13.81 26.687 7.869 40.677-.507 1.194-1.004 2.4-1.467 3.582-5.597 14.099-19.075 23.208-34.338 23.208-4.143 0-7.5 3.358-7.5 7.5v60.61c0 4.142 3.357 7.5 7.5 7.5h.4c15.177 0 28.617 9.018 34.235 22.956.486 1.215.984 2.42 1.496 3.602 6.062 14.068 3.011 30.122-7.773 40.897-1.407 1.406-2.198 3.314-2.198 5.304s.79 3.898 2.196 5.305l42.859 42.86c1.407 1.407 3.314 2.197 5.304 2.197s3.896-.79 5.304-2.197l.289-.29c10.723-10.721 26.687-13.81 40.675-7.871 1.195.508 2.401 1.005 3.585 1.468 14.099 5.598 23.208 19.076 23.208 34.339 0 4.142 3.357 7.5 7.5 7.5h60.61c4.143 0 7.5-3.358 7.5-7.5v-.4c0-15.177 9.018-28.618 22.956-34.236 1.216-.487 2.422-.984 3.604-1.497 4.624-1.994 9.492-3.016 14.398-3.057-5.788 14.298-8.985 29.913-8.985 46.262 0 68.191 55.478 123.668 123.668 123.668 68.191 0 123.669-55.478 123.669-123.668 0-26.967-8.527-52.595-24.659-74.114z"/><path d="m388.331 293.958c-52.038 0-94.374 42.336-94.374 94.374s42.336 94.374 94.374 94.374 94.374-42.336 94.374-94.374c0-52.039-42.336-94.374-94.374-94.374zm0 173.747c-43.767 0-79.374-35.607-79.374-79.374s35.607-79.374 79.374-79.374 79.374 35.607 79.374 79.374-35.607 79.374-79.374 79.374z"/><path d="m420.06 336.408c-1.984.158-3.824 1.099-5.114 2.614l-40.786 47.91-17.006-16.505c-2.973-2.886-7.721-2.814-10.605.158l-21.106 21.747c-2.885 2.973-2.814 7.721.158 10.605l34.346 33.334c9.252 8.982 24.645 8.258 33.015-1.558l56.463-66.3c2.685-3.152 2.307-7.882-.843-10.569l-23.057-19.667c-1.515-1.29-3.478-1.93-5.465-1.769zm-38.517 88.576c-1.366 1.602-3.356 2.578-5.459 2.677-2.145.096-4.169-.674-5.691-2.153l-28.964-28.111 10.659-10.983 17.369 16.857c1.489 1.444 3.494 2.208 5.58 2.11 2.071-.099 4.01-1.051 5.354-2.63l41.109-48.289 11.643 9.931z"/></g></g></svg>