<svg id="Capa_1" enable-background="new 0 0 512 512" height="512" viewBox="0 0 512 512" width="512" xmlns="http://www.w3.org/2000/svg"><path d="m127.531 98.487c-41.5 0-75.143 33.643-75.143 75.143 0 36.198 25.598 66.411 59.677 73.542l31.373-.102c33.858-7.3 59.236-37.4 59.236-73.441.001-41.499-33.642-75.142-75.143-75.142z" fill="#60b8fe"/><path d="m85.188 173.631c0-35.865 25.134-65.842 58.744-73.327-5.281-1.176-10.764-1.816-16.4-1.816-41.5 0-75.143 33.643-75.143 75.143 0 36.198 25.598 66.411 59.677 73.542l31.373-.102c.164-.035.324-.08.487-.116-33.607-7.487-58.738-37.461-58.738-73.324z" fill="#23a8fe"/><path d="m127.531 129.264c-24.503 0-44.366 19.863-44.366 44.367 0 19.063 12.024 35.313 28.901 41.591l31.373-.174c16.643-6.396 28.459-22.522 28.459-41.417 0-24.504-19.864-44.367-44.367-44.367z" fill="#23a8fe"/><path d="m115.964 173.631c0-18.708 11.584-34.7 27.967-41.223-5.075-2.021-10.605-3.144-16.4-3.144-24.503 0-44.366 19.863-44.366 44.367 0 19.063 12.024 35.313 28.901 41.591l31.373-.174c.163-.063.323-.132.485-.197-16.379-6.526-27.96-22.516-27.96-41.22z" fill="#0193fa"/><path d="m222.096 255.652c-8.663 0-15.686 7.023-15.686 15.686v-3.174c0-8.663-7.022-15.686-15.685-15.686s-15.686 7.023-15.686 15.686v-4.231c0-8.663-7.023-15.685-15.685-15.685-8.663 0-15.915 7.023-15.915 15.685v-66.249l-.007-10.022c-.006-8.673-7.045-15.698-15.717-15.693-8.674.007-15.654 7.045-15.647 15.717v126.782c0 2.565-3.257 3.664-4.811 1.623l-25.02-32.844c-12.984-18.176-36.183-2.278-28.523 14.338l30.944 70.815c.053.115 4.478 9.49 11.378 16.323v.004c.079.075 9.99 9.892 9.99 9.892 5.224 5.174 6.173 13.918 6.265 24.403h-.002c0 1.668-.06 5.936-.088 7.775h103.097c-.003-5.278-.006-15.733-.006-15.742-.014-22.75 22.516-20.671 22.49-48.964l-.049-66.262h.049v-5.35-.001-19.137c-.001-8.666-7.023-15.689-15.686-15.689z" fill="#fed2a4"/><g fill="#ffbd86"><path d="m116.904 321.425c5.167 4.185 11.624.783 11.624-1.782v-131.957c-.004-5.652 2.969-10.595 7.435-13.364-2.4-1.484-5.22-2.354-8.248-2.352-8.674.007-15.654 7.045-15.647 15.717v126.782c0 .882-.389 1.584-.957 2.051z"/><path d="m128.752 419.021c-.092-10.485-1.041-19.228-6.265-24.403 0 0-9.911-9.816-9.99-9.892v-.004c-6.9-6.833-11.325-16.208-11.378-16.323l-40.145-91.436c-6.902 3.576-11.234 12.001-7.26 20.621l30.944 70.816c.053.115 4.478 9.49 11.378 16.323v.004c.079.075 9.99 9.892 9.99 9.892 5.224 5.174 6.173 13.918 6.265 24.403h-.002c0 1.668-.06 5.936-.088 7.775h16.461c.028-1.839.088-6.106.088-7.775h.002z"/><path d="m151.669 310.385c4.546 0 8.23-3.685 8.23-8.23v-53.88c-.183-.006-.361-.028-.545-.028-8.663 0-15.915 7.023-15.915 15.685v38.222c0 4.547 3.684 8.231 8.23 8.231z"/><path d="m222.871 302.155v-46.464c-.259-.013-.513-.039-.775-.039-8.661 0-15.683 7.021-15.685 15.682v30.821c0 4.546 3.685 8.23 8.23 8.23s8.23-3.684 8.23-8.23z"/></g><path d="m229.009 432.943v63.075c0 4.759-3.858 8.616-8.616 8.616h-113.936c-4.758 0-8.616-3.858-8.616-8.616v-63.075c0-4.759 3.858-8.616 8.616-8.616h113.936c4.758 0 8.616 3.857 8.616 8.616z" fill="#23a8fe"/><path d="m128.752 496.017v-63.075c0-4.759 3.858-8.616 8.616-8.616h-30.912c-4.759 0-8.616 3.858-8.616 8.616v63.075c0 4.759 3.858 8.616 8.616 8.616h30.912c-4.758.001-8.616-3.857-8.616-8.616z" fill="#0193fa"/><path d="m183.27 310.385c4.546 0 8.23-3.685 8.23-8.23v-49.637c-.258-.013-.513-.039-.775-.039-8.662 0-15.684 7.022-15.686 15.684v33.993c0 4.545 3.685 8.229 8.231 8.229z" fill="#ffbd86"/><path d="m447.691 7.634h-121.996c-6.882 0-12.512 5.63-12.512 12.512v34.409c0 6.882 5.631 12.512 12.512 12.512h121.995c6.882 0 12.512-5.63 12.512-12.512v-34.409c.001-6.882-5.63-12.512-12.511-12.512z" fill="#fee55a"/><path d="m447.691 98.487h-121.996c-6.882 0-12.512 5.63-12.512 12.512v34.409c0 6.882 5.631 12.512 12.512 12.512h121.995c6.882 0 12.512-5.63 12.512-12.512v-34.409c.001-6.881-5.63-12.512-12.511-12.512z" fill="#ffa85d"/><path d="m447.691 189.34h-121.996c-6.882 0-12.512 5.63-12.512 12.512v34.409c0 6.882 5.631 12.512 12.512 12.512h121.995c6.882 0 12.512-5.63 12.512-12.512v-34.409c.001-6.881-5.63-12.512-12.511-12.512z" fill="#ff656f"/><path d="m447.691 280.194h-121.996c-6.882 0-12.512 5.63-12.512 12.512v34.409c0 6.882 5.631 12.512 12.512 12.512h121.995c6.882 0 12.512-5.63 12.512-12.512v-34.409c.001-6.882-5.63-12.512-12.511-12.512z" fill="#43cb8e"/><path d="m366.516 54.555v-34.409c0-6.882 5.631-12.512 12.512-12.512h-53.333c-6.882 0-12.512 5.63-12.512 12.512v34.409c0 6.882 5.63 12.512 12.512 12.512h53.333c-6.881 0-12.512-5.63-12.512-12.512z" fill="#ffd301"/><path d="m366.516 145.408v-34.409c0-6.882 5.631-12.512 12.512-12.512h-53.333c-6.882 0-12.512 5.63-12.512 12.512v34.409c0 6.882 5.63 12.512 12.512 12.512h53.333c-6.881.001-12.512-5.63-12.512-12.512z" fill="#ff9839"/><path d="m366.516 236.262v-34.409c0-6.882 5.631-12.512 12.512-12.512h-53.333c-6.882 0-12.512 5.63-12.512 12.512v34.409c0 6.882 5.63 12.512 12.512 12.512h53.333c-6.881 0-12.512-5.631-12.512-12.512z" fill="#ff4756"/><path d="m366.516 327.115v-34.409c0-6.882 5.631-12.512 12.512-12.512h-53.333c-6.882 0-12.512 5.63-12.512 12.512v34.409c0 6.882 5.63 12.512 12.512 12.512h53.333c-6.881 0-12.512-5.63-12.512-12.512z" fill="#00ba66"/><path d="m120.993 455.253v18.182c0 4.142 3.357 7.5 7.5 7.5s7.5-3.358 7.5-7.5v-18.182c0-4.142-3.357-7.5-7.5-7.5-4.142 0-7.5 3.358-7.5 7.5z"/><path d="m88.108 278.641c-18.07-25.107-52.805-3.069-41.402 21.864l30.919 70.756c.025.06.052.118.079.177 6.085 12.978 14.149 19.717 22.885 28.369 3.131 3.101 3.853 9.852 4.008 16.973-8.09.852-14.416 7.713-14.416 16.025v63.078c0 8.887 7.229 16.117 16.116 16.117h39.473c4.143 0 7.5-3.358 7.5-7.5s-3.357-7.5-7.5-7.5h-39.473c-.615 0-1.116-.501-1.116-1.117v-63.078c0-.616.501-1.117 1.116-1.117h113.943c.616 0 1.117.501 1.117 1.117v63.078c0 .616-.501 1.117-1.117 1.117h-39.471c-4.143 0-7.5 3.358-7.5 7.5s3.357 7.5 7.5 7.5h39.471c8.887 0 16.117-7.23 16.117-16.117v-63.078c0-8.069-5.967-14.752-13.715-15.918l-.003-5.978c-.011-17.772 22.52-17.953 22.491-48.969l-.011-14.17c-.003-4.14-3.36-7.494-7.5-7.494-.002 0-.004 0-.006 0-4.142.003-7.497 3.364-7.494 7.506l.011 14.171c.011 11.883-4.431 16.479-10.054 22.297-5.545 5.738-12.446 12.878-12.438 26.664l.003 5.773h-88.04c-.192-9.817-1.318-20.467-8.458-27.539-8.572-8.491-14.693-13.429-19.825-24.011l-30.896-70.704c-.02-.046-.04-.091-.061-.137-3.904-8.469 7.924-17.599 15.611-6.84.044.063.09.125.137.185l25.021 32.847c5.893 7.739 18.277 3.536 18.277-6.168 0-5.58 0-122.246 0-126.795-.003-4.525 3.655-8.209 8.152-8.213 4.541.009 8.211 3.676 8.215 8.198.007 107.178.006 84.797.006 114.496 0 4.142 3.357 7.5 7.5 7.5s7.5-3.358 7.5-7.5c0-31.564.229-11.698.229-38.224 0-4.514 3.673-8.187 8.188-8.187 4.514 0 8.187 3.673 8.187 8.187v4.231 33.993c0 4.142 3.357 7.5 7.5 7.5s7.5-3.358 7.5-7.5v-33.993c0-4.514 3.673-8.187 8.187-8.187s8.187 3.673 8.187 8.187v3.173 30.819c0 4.142 3.357 7.5 7.5 7.5s7.5-3.358 7.5-7.5v-30.819c0-4.514 3.673-8.187 8.187-8.187s8.187 3.672 8.187 8.187c0 19.382-.051 22.224-.036 41.593.003 4.141 3.36 7.495 7.5 7.495h.006c4.142-.003 7.497-3.363 7.494-7.505-.003-4.311.036-15.499.036-41.583 0-12.785-10.401-23.187-23.187-23.187-5.245 0-10.089 1.751-13.978 4.698-4.253-4.824-10.475-7.872-17.396-7.872-4.999 0-9.634 1.591-13.425 4.292-1.756-2.146-3.893-3.964-6.299-5.369 7.749-4.801 14.725-10.874 20.556-18.01 10.418-12.747 16.766-28.407 18.263-44.744h46.924v117.354c0 10.436 8.49 18.926 18.926 18.926h30.01v9.705c0 11.035 8.978 20.012 20.012 20.012h121.995c11.035 0 20.013-8.978 20.013-20.012v-34.409c0-11.035-8.978-20.012-20.013-20.012h-121.996c-11.034 0-20.012 8.978-20.012 20.012v9.705h-30.01c-2.165 0-3.926-1.761-3.926-3.926v-71.927h33.936v9.705c0 11.035 8.978 20.012 20.012 20.012h121.995c11.035 0 20.013-8.978 20.013-20.012v-34.409c0-11.035-8.978-20.013-20.013-20.013h-121.995c-11.034 0-20.012 8.978-20.012 20.013v9.704h-33.935v-75.852h33.936v9.704c0 11.035 8.978 20.013 20.012 20.013h121.995c11.035 0 20.013-8.978 20.013-20.013v-34.409c0-11.035-8.978-20.012-20.013-20.012h-121.996c-11.034 0-20.012 8.978-20.012 20.012v9.705h-33.935v-71.927c0-2.165 1.761-3.926 3.926-3.926h30.01v9.705c0 11.035 8.978 20.012 20.012 20.012h121.995c11.035 0 20.013-8.978 20.013-20.012v-34.41c-.001-11.034-8.978-20.012-20.014-20.012h-121.995c-11.034 0-20.012 8.978-20.012 20.012v9.705h-30.01c-10.436 0-18.926 8.49-18.926 18.926v117.354h-46.929c-3.804-42.066-39.248-75.144-82.288-75.144-45.569 0-82.643 37.074-82.643 82.644 0 36.841 24.757 69.281 59.677 79.382v47.16zm232.418 13.931c0-2.717 2.295-5.012 5.012-5.012h121.995c2.717 0 5.013 2.295 5.013 5.012v34.409c0 2.717-2.296 5.012-5.013 5.012h-121.996c-2.717 0-5.012-2.295-5.012-5.012v-34.409zm0-90.853c0-2.717 2.295-5.013 5.012-5.013h121.995c2.717 0 5.013 2.295 5.013 5.013v34.409c0 2.717-2.296 5.012-5.013 5.012h-121.996c-2.717 0-5.012-2.295-5.012-5.012v-34.409zm0-90.853c0-2.717 2.295-5.012 5.012-5.012h121.995c2.717 0 5.013 2.295 5.013 5.012v34.409c0 2.717-2.296 5.013-5.013 5.013h-121.996c-2.717 0-5.012-2.295-5.012-5.013v-34.409zm0-90.854c0-2.717 2.295-5.012 5.012-5.012h121.995c2.717 0 5.013 2.295 5.013 5.012v34.409c0 2.717-2.296 5.012-5.013 5.012h-121.996c-2.717 0-5.012-2.295-5.012-5.012v-34.409zm-192.963 144.301c-.004 0-.009 0-.013 0h-.001c-1.729.001-3.412.2-5.034.563-10.355 2.319-18.116 11.598-18.108 22.655v14.788c-8.597-6.886-13.9-17.459-13.9-28.822 0-20.329 16.538-36.867 36.866-36.867 20.329 0 36.867 16.538 36.867 36.867 0 11.128-5.129 21.546-13.46 28.446l-.006-14.442c-.009-12.789-10.419-23.188-23.211-23.188zm-67.832 9.184c0-37.299 30.345-67.644 67.643-67.644 37.299 0 67.644 30.345 67.644 67.644 0 28.451-18.127 53.796-44.236 63.464l-.002-17.194c17.213-8.747 28.462-26.725 28.462-46.269 0-28.6-23.268-51.867-51.867-51.867s-51.866 23.267-51.866 51.867c0 19.774 11.422 37.838 28.9 46.499v17.138c-26.366-9.538-44.678-34.965-44.678-63.638z"/></svg>